<svg xmlns="http://www.w3.org/2000/svg" width="500" height="500" viewBox="0 0 500 500"><defs><style>.cls-1{fill:#00c2ff;}.cls-2{fill:#006aac;}.cls-3{fill:#fdec00;}</style></defs><g id="Endless_Runner" data-name="Endless Runner"><path class="cls-1" d="M191.81,492.57a14.86,14.86,0,0,1-3.71-.47A251.16,251.16,0,0,1,53.56,404.49,249.82,249.82,0,0,1,73.23,73.37a250,250,0,0,1,275-53.06,15,15,0,1,1-11.82,27.57A219.85,219.85,0,0,0,30.07,250,217.52,217.52,0,0,0,77.12,385.92,221,221,0,0,0,195.5,463a15,15,0,0,1-3.69,29.54Z"/><path class="cls-1" d="M370.06,50.67,344.71,1.09a2,2,0,0,0-3.55,0L311.33,58.18a2,2,0,0,0,2,2.9l55.18-7.52A2,2,0,0,0,370.06,50.67Z"/><path class="cls-2" d="M491.19,300.15l-.79-.61a22.74,22.74,0,0,0-31.9,4l-23.45,30.24-48.22-37.39-10.29-7.5a100.16,100.16,0,1,0-76-55.47l-47.77-37.05a22.75,22.75,0,0,0-31.91,4l-.61.79h0l-37.38,48.21a22.75,22.75,0,0,0,4,31.91l.79.61a22.75,22.75,0,0,0,31.91-4L243,247.7l34.07,26.41L172.81,462a23.23,23.23,0,0,0,7.52,32h0a23.23,23.23,0,0,0,32-7.52l61-95.74,6.25-8.33,56.05,33L306.35,465.2a22.74,22.74,0,0,0,8,31.14l.86.51a22.75,22.75,0,0,0,31.14-8.05l39.89-67.7c.19-.3.41-.59.59-.9l1.36-2.3a21.9,21.9,0,0,0-7.76-30l-37.05-21.84,18.69-30,63.2,49a22.74,22.74,0,0,0,31.91-4l.61-.78h0l37.39-48.21A22.74,22.74,0,0,0,491.19,300.15Z"/><path class="cls-3" d="M387.15,201.14A12.11,12.11,0,0,1,375,189V173a12.11,12.11,0,0,1,24.21,0v16A12.1,12.1,0,0,1,387.15,201.14Z"/><path class="cls-3" d="M451,201.14a12.1,12.1,0,0,1-12.1-12.1V173a12.11,12.11,0,0,1,24.21,0v16A12.11,12.11,0,0,1,451,201.14Z"/></g></svg>